<svg xmlns="http://www.w3.org/2000/svg" width="18.667" height="20" viewBox="0 0 18.667 20">
  <path id="bank" d="M9.333,0l9.333,4.286V5.714H17.422a.71.71,0,0,1-.2.5.623.623,0,0,1-.471.212H1.915a.626.626,0,0,1-.471-.212.711.711,0,0,1-.2-.5H0V4.286ZM2.489,7.143H4.978v8.571H6.222V7.143H8.711v8.571H9.956V7.143h2.489v8.571h1.244V7.143h2.489v8.571h.573a.626.626,0,0,1,.471.212.709.709,0,0,1,.2.5v.714H1.244v-.714a.71.71,0,0,1,.2-.5.623.623,0,0,1,.471-.212h.573V7.143ZM18,17.857a.626.626,0,0,1,.471.212.709.709,0,0,1,.2.5V20H0V18.571a.71.71,0,0,1,.2-.5.623.623,0,0,1,.471-.212H18Z" fill="#282d3d"/>
</svg>
