<svg xmlns="http://www.w3.org/2000/svg" width="14" height="15" viewBox="0 0 14 15">
  <path id="bank" d="M7,0l7,3.214V4.286h-.933a.533.533,0,0,1-.149.377.467.467,0,0,1-.354.159H1.437a.469.469,0,0,1-.354-.159.533.533,0,0,1-.15-.377H0V3.214ZM1.867,5.357H3.733v6.429h.933V5.357H6.533v6.429h.933V5.357H9.333v6.429h.933V5.357h1.867v6.429h.43a.469.469,0,0,1,.353.159.532.532,0,0,1,.149.377v.536H.933v-.536a.533.533,0,0,1,.149-.377.467.467,0,0,1,.354-.159h.43V5.357ZM13.5,13.393a.469.469,0,0,1,.354.159.532.532,0,0,1,.149.377V15H0V13.929a.533.533,0,0,1,.149-.377A.467.467,0,0,1,.5,13.393H13.5Z" fill="#fff"/>
</svg>
