<svg xmlns="http://www.w3.org/2000/svg" width="23.965" height="23.942" viewBox="0 0 23.965 23.942">
  <path id="calculator" d="M20.984,23.941H3.01a2.888,2.888,0,0,1-2.118-.878,2.881,2.881,0,0,1-.877-2.118V2.971A2.848,2.848,0,0,1,.893.865,2.905,2.905,0,0,1,3.011,0H20.984A2.907,2.907,0,0,1,23.1.865a2.845,2.845,0,0,1,.878,2.106V20.945a3,3,0,0,1-3,3ZM12,20.2a.76.76,0,0,0,.749.749h1.5a.76.76,0,0,0,.749-.749V18.7a.76.76,0,0,0-.749-.749h-1.5A.76.76,0,0,0,12,18.7Zm0-5.991a.76.76,0,0,0,.749.749h1.5a.739.739,0,0,0,.526-.211.712.712,0,0,0,.223-.538v-1.5a.76.76,0,0,0-.749-.749h-1.5a.76.76,0,0,0-.749.749ZM7.5,20.2a.76.76,0,0,0,.749.749h1.5A.76.76,0,0,0,10.5,20.2V18.7a.76.76,0,0,0-.749-.749h-1.5A.76.76,0,0,0,7.5,18.7Zm0-5.991a.76.76,0,0,0,.749.749h1.5a.739.739,0,0,0,.526-.211.712.712,0,0,0,.223-.538v-1.5a.76.76,0,0,0-.749-.749h-1.5a.76.76,0,0,0-.749.749ZM3.011,20.2a.76.76,0,0,0,.749.749h1.5a.76.76,0,0,0,.749-.749V18.7a.76.76,0,0,0-.749-.749H3.76a.76.76,0,0,0-.749.749v1.5Zm0-5.991a.76.76,0,0,0,.749.749h1.5a.739.739,0,0,0,.526-.211.712.712,0,0,0,.223-.538v-1.5a.76.76,0,0,0-.749-.749H3.76a.76.76,0,0,0-.749.749v1.5ZM20.984,4.469a1.458,1.458,0,0,0-.433-1.053,1.429,1.429,0,0,0-1.065-.444H4.509a1.429,1.429,0,0,0-1.065.444,1.458,1.458,0,0,0-.433,1.053v3a1.479,1.479,0,0,0,1.5,1.5H19.486a1.479,1.479,0,0,0,1.5-1.5Zm0,8.238a.76.76,0,0,0-.749-.749h-3a.76.76,0,0,0-.749.749v1.5a.709.709,0,0,0,.223.538.74.74,0,0,0,.526.211h3a.739.739,0,0,0,.526-.211.712.712,0,0,0,.223-.538Zm0,4.493a.76.76,0,0,0-.749-.749h-3a.76.76,0,0,0-.749.749v3a.76.76,0,0,0,.749.749h3a.76.76,0,0,0,.749-.749v-3Z" transform="translate(-0.015 0.001)" fill="#fff"/>
</svg>
