<svg id="calendar3-fill" xmlns="http://www.w3.org/2000/svg" width="23" height="23" viewBox="0 0 23 23">
  <path id="Path_283" data-name="Path 283" d="M0,4.5C0,2.015,1.287,0,2.875,0h17.25C21.713,0,23,2.015,23,4.5Z" fill="#fff"/>
  <path id="Path_284" data-name="Path 284" d="M0,6.75H23V20.5A2.707,2.707,0,0,1,20.125,23H2.875A2.707,2.707,0,0,1,0,20.5Zm9.344,5a1.354,1.354,0,0,0,1.437-1.25A1.354,1.354,0,0,0,9.344,9.25,1.354,1.354,0,0,0,7.906,10.5,1.354,1.354,0,0,0,9.344,11.75Zm5.75-1.25a1.354,1.354,0,0,1-1.438,1.25,1.354,1.354,0,0,1-1.437-1.25,1.354,1.354,0,0,1,1.438-1.25A1.354,1.354,0,0,1,15.094,10.5Zm2.875,1.25a1.354,1.354,0,0,0,1.438-1.25,1.452,1.452,0,0,0-2.875,0A1.354,1.354,0,0,0,17.969,11.75Zm-11.5,2.5A1.354,1.354,0,0,1,5.031,15.5a1.354,1.354,0,0,1-1.437-1.25A1.354,1.354,0,0,1,5.031,13,1.354,1.354,0,0,1,6.469,14.25ZM9.344,15.5a1.354,1.354,0,0,0,1.437-1.25A1.354,1.354,0,0,0,9.344,13a1.354,1.354,0,0,0-1.437,1.25A1.354,1.354,0,0,0,9.344,15.5Zm5.75-1.25a1.354,1.354,0,0,1-1.438,1.25,1.354,1.354,0,0,1-1.437-1.25A1.354,1.354,0,0,1,13.656,13,1.354,1.354,0,0,1,15.094,14.25Zm2.875,1.25a1.354,1.354,0,0,0,1.438-1.25,1.452,1.452,0,0,0-2.875,0A1.354,1.354,0,0,0,17.969,15.5ZM6.469,18a1.354,1.354,0,0,1-1.437,1.25A1.354,1.354,0,0,1,3.594,18a1.354,1.354,0,0,1,1.438-1.25A1.354,1.354,0,0,1,6.469,18Zm2.875,1.25A1.354,1.354,0,0,0,10.781,18a1.354,1.354,0,0,0-1.437-1.25A1.354,1.354,0,0,0,7.906,18,1.354,1.354,0,0,0,9.344,19.25ZM15.094,18a1.354,1.354,0,0,1-1.438,1.25A1.354,1.354,0,0,1,12.219,18a1.354,1.354,0,0,1,1.438-1.25A1.354,1.354,0,0,1,15.094,18Z" transform="translate(0 0)" fill="#fff" fill-rule="evenodd"/>
</svg>
