<svg xmlns="http://www.w3.org/2000/svg" width="11.867" height="15.075" viewBox="0 0 11.867 15.075">
  <g id="lock-fill" transform="translate(-5.625 -1.125)">
    <path id="Path_291" data-name="Path 291" d="M5.625,17.753a2.084,2.084,0,0,1,2.158-2h7.552a2.085,2.085,0,0,1,2.158,2v5.007a2.085,2.085,0,0,1-2.158,2H7.783a2.084,2.084,0,0,1-2.158-2Z" transform="translate(0 -8.562)" fill="#fff"/>
    <path id="Path_292" data-name="Path 292" d="M10.125,4.63a3.736,3.736,0,0,1,3.931-3.5,3.736,3.736,0,0,1,3.931,3.5v3H16.864v-3a2.669,2.669,0,0,0-2.808-2.5,2.669,2.669,0,0,0-2.808,2.5v3H10.125Z" transform="translate(-2.497)" fill="#fff" fill-rule="evenodd"/>
  </g>
</svg>
