<svg xmlns="http://www.w3.org/2000/svg" width="14.999" height="15" viewBox="0 0 14.999 15">
  <path id="phone" d="M14.792,12.473l-2.115,2.1A1.53,1.53,0,0,1,11.548,15,9.781,9.781,0,0,1,6.7,13.173,18.706,18.706,0,0,1,1.038,7,7.989,7.989,0,0,1,0,3.478,1.54,1.54,0,0,1,.433,2.333L2.548.22A.7.7,0,0,1,3.693.411l1.7,3.226A.937.937,0,0,1,5.2,4.7l-.779.779a.384.384,0,0,0-.08.223,6.642,6.642,0,0,0,2,2.956,6.645,6.645,0,0,0,2.775,1.963.439.439,0,0,0,.405-.04l.906-.922a1.035,1.035,0,0,1,1.1-.159h.016l3.069,1.812a.739.739,0,0,1,.175,1.16Z" transform="translate(0 0)" fill="#fff"/>
</svg>
