<svg xmlns="http://www.w3.org/2000/svg" width="23.035" height="23" viewBox="0 0 23.035 23">
  <g id="settings-solid-badged" transform="translate(-2.753 -2.819)">
    <path id="Path_285" data-name="Path 285" d="M25.292,12.6l-2.526-.755a9.149,9.149,0,0,0-.354-1A5.65,5.65,0,0,1,17.781,6.2a8.91,8.91,0,0,0-1-.362l-.754-2.5A.46.46,0,0,0,15.579,3H13.03a.46.46,0,0,0-.437.324l-.754,2.49a8.767,8.767,0,0,0-1.795.755L7.781,5.347a.46.46,0,0,0-.543.083L5.406,7.218a.461.461,0,0,0-.083.543l1.222,2.264a8.779,8.779,0,0,0-.754,1.788l-2.5.755a.46.46,0,0,0-.324.438v2.551a.46.46,0,0,0,.324.438l2.511.755a8.771,8.771,0,0,0,.754,1.758L5.323,20.876a.461.461,0,0,0,.083.543l1.8,1.8a.46.46,0,0,0,.543.083l2.33-1.245a8.782,8.782,0,0,0,1.734.709l.754,2.543a.46.46,0,0,0,.437.324h2.549a.46.46,0,0,0,.437-.324l.754-2.551a8.767,8.767,0,0,0,1.719-.709l2.345,1.253a.46.46,0,0,0,.543-.083l1.8-1.8a.461.461,0,0,0,.083-.543l-1.252-2.339a8.779,8.779,0,0,0,.716-1.728l2.541-.755a.46.46,0,0,0,.324-.438V13.044a.46.46,0,0,0-.279-.445ZM14.3,18.469a4.15,4.15,0,1,1,4.148-4.15,4.149,4.149,0,0,1-4.148,4.15Z" transform="translate(0)" fill="#fff"/>
    <path id="Path_286" data-name="Path 286" d="M22.329,9.6,19.8,8.846a9.151,9.151,0,0,0-.355-1A5.652,5.652,0,0,1,14.815,3.2a8.913,8.913,0,0,0-1-.362L13.058.34A.46.46,0,0,0,12.613,0h-2.55a.46.46,0,0,0-.438.325L8.871,2.815a8.77,8.77,0,0,0-1.8.755L4.813,2.347a.46.46,0,0,0-.543.083L2.437,4.219a.461.461,0,0,0-.083.543L3.576,7.027a8.781,8.781,0,0,0-.754,1.789l-2.5.755A.46.46,0,0,0,0,10.008V12.56A.46.46,0,0,0,.324,13l2.512.755a8.773,8.773,0,0,0,.754,1.759l-1.237,2.37a.461.461,0,0,0,.083.543l1.8,1.8a.46.46,0,0,0,.543.083l2.331-1.245a8.785,8.785,0,0,0,1.735.71L9.6,22.319a.46.46,0,0,0,.438.325h2.55a.46.46,0,0,0,.438-.325l.754-2.551a8.77,8.77,0,0,0,1.72-.709l2.346,1.253a.46.46,0,0,0,.543-.083l1.8-1.8a.461.461,0,0,0,.083-.543l-1.252-2.34a8.781,8.781,0,0,0,.717-1.728l2.542-.755a.46.46,0,0,0,.324-.438V10.046a.46.46,0,0,0-.279-.445ZM11.338,15.473a4.151,4.151,0,1,1,4.149-4.151,4.15,4.15,0,0,1-4.149,4.151Z" transform="matrix(-0.017, 1, -1, -0.017, 25.788, 3.214)" fill="#fff"/>
  </g>
</svg>
