<svg xmlns="http://www.w3.org/2000/svg" width="48.333" height="58" viewBox="0 0 48.333 58">
  <path id="user" d="M48.333,47.993a10.941,10.941,0,0,1-2.36,7.062A7.072,7.072,0,0,1,40.291,58H8.043A7.069,7.069,0,0,1,2.36,55.055,10.953,10.953,0,0,1,0,47.993a54.325,54.325,0,0,1,.321-6.061,32.55,32.55,0,0,1,1.189-5.74,19.1,19.1,0,0,1,2.209-4.946,10.579,10.579,0,0,1,3.549-3.361,9.8,9.8,0,0,1,5.08-1.3,16.319,16.319,0,0,0,11.819,4.833,16.319,16.319,0,0,0,11.819-4.833,9.8,9.8,0,0,1,5.078,1.3,10.579,10.579,0,0,1,3.549,3.361,19.1,19.1,0,0,1,2.209,4.946,32.55,32.55,0,0,1,1.189,5.74A54.323,54.323,0,0,1,48.332,48ZM38.667,14.5a13.966,13.966,0,0,1-4.249,10.252A13.978,13.978,0,0,1,24.167,29a13.962,13.962,0,0,1-10.252-4.248A13.973,13.973,0,0,1,9.667,14.5,13.973,13.973,0,0,1,13.915,4.249,13.962,13.962,0,0,1,24.167,0,13.978,13.978,0,0,1,34.418,4.249,13.966,13.966,0,0,1,38.667,14.5Z" fill="#fff"/>
</svg>
